<svg version="1.1" id="Layer_1" xmlns="http://www.w3.org/2000/svg" xmlns:xlink="http://www.w3.org/1999/xlink" x="0px" y="0px"
	 width="100%" viewBox="0 0 810 543" enable-background="new 0 0 810 543" xml:space="preserve">
<path fill="#978EFC" opacity="1.000000" stroke="none" 
	d="
M578.000000,544.000000 
	C481.645782,544.000000 385.291534,544.000000 288.451355,543.637207 
	C287.792023,542.639954 287.816132,541.815063 287.415558,541.399902 
	C281.811493,535.591614 276.072937,529.911926 270.520996,524.055054 
	C263.583923,516.736938 256.594818,509.452698 249.986160,501.842957 
	C243.158081,493.980499 236.734772,485.765076 230.180817,477.666504 
	C225.391296,471.748230 220.676941,465.769135 215.905197,459.410980 
	C215.717102,457.531219 215.802826,455.975616 215.350433,454.596527 
	C210.237000,439.008362 205.056900,423.441986 199.831085,407.891113 
	C199.488876,406.872772 198.678726,405.274384 197.999146,405.228271 
	C194.050446,404.960205 189.966782,404.549438 186.166168,405.335297 
	C184.751495,405.627777 183.978439,409.023193 182.581680,410.931091 
	C180.354126,408.610931 178.144760,406.557220 176.612808,404.083893 
	C167.601227,389.534851 158.358078,375.107910 149.948654,360.213165 
	C141.290619,344.878113 133.086777,329.252594 125.444885,313.387756 
	C118.315933,298.587769 111.996048,283.385651 105.674606,268.212830 
	C100.245979,255.182922 94.778557,242.125229 90.297729,228.754929 
	C83.868752,209.571548 77.930710,190.201370 72.510849,170.708588 
	C67.496986,152.675980 63.027988,134.465851 59.094204,116.167267 
	C55.995110,101.751381 53.866817,87.113083 51.690399,72.516457 
	C49.541706,58.105770 47.795254,43.633011 46.023445,29.168974 
	C44.875340,19.796501 43.998428,10.390808 43.000000,1.000000 
	C94.687561,1.000000 146.375122,1.000000 198.552429,1.394060 
	C200.023132,8.299660 201.082703,14.800510 201.969452,21.324850 
	C204.158203,37.428497 205.493561,53.693970 208.600418,69.615654 
	C212.699219,90.620758 217.897644,111.426575 223.145050,132.186188 
	C226.030273,143.600677 229.591858,154.885239 233.551407,165.977463 
	C239.411667,182.394333 245.491547,198.758041 252.228989,214.829514 
	C259.096893,231.212189 266.327820,247.493088 274.414581,263.299347 
	C281.593262,277.330627 289.702118,290.946442 298.227356,304.214294 
	C311.068298,324.198792 324.109131,344.098206 338.055267,363.315125 
	C348.569519,377.803040 360.635254,391.165009 372.002228,405.494629 
	C371.994019,423.866180 371.994019,441.771179 371.994019,459.779663 
	C385.029083,459.779663 397.253784,459.779663 409.716064,459.779663 
	C409.716064,456.994659 409.716064,454.578796 409.716064,451.305359 
	C403.660858,451.305359 397.877716,451.305389 392.094604,451.305359 
	C381.163147,451.305328 381.242340,451.311646 382.138153,440.138977 
	C382.346069,437.546173 383.362427,436.630676 385.825470,436.681427 
	C389.652283,436.760345 393.483765,436.616577 397.310333,436.700958 
	C400.685486,436.775452 402.450562,435.803284 402.415283,431.877808 
	C402.379028,427.846222 400.186615,427.697845 397.277039,427.831848 
	C395.449768,427.915985 393.614258,427.894409 391.784698,427.842163 
	C380.924896,427.532013 382.315063,430.336578 382.157013,417.467224 
	C382.122406,414.647919 383.259094,413.619263 386.007141,413.678772 
	C392.661041,413.822906 399.318359,413.810760 406.057190,414.193909 
	C409.368713,417.686188 412.597382,420.846100 415.859070,424.266968 
	C415.870117,424.701904 415.848145,424.875885 415.637146,425.333008 
	C415.362000,431.852448 420.914764,436.626129 426.455078,434.788086 
	C427.915863,435.062408 429.029297,435.328705 430.120789,435.990417 
	C431.505249,438.457336 432.919769,440.523376 434.315948,442.601807 
	C436.220490,445.436920 438.111053,448.281464 439.541748,451.185669 
	C431.520050,451.249390 423.964172,451.249390 415.721252,451.249390 
	C417.166962,454.870728 413.397736,459.724854 418.954224,459.954071 
	C428.534973,460.349335 438.159180,459.692749 447.981934,459.757996 
	C448.966980,459.536926 449.735199,459.035431 450.440979,458.469238 
	C450.378510,458.404572 450.414581,458.228363 450.811890,458.380402 
	C453.021301,459.782288 454.912201,460.934113 456.622711,462.310211 
	C458.263824,463.630493 459.587219,465.361542 461.278137,466.601257 
	C466.803894,470.652649 473.005432,473.977814 477.842560,478.711060 
	C481.716156,482.501373 488.310852,483.342041 489.832489,489.637268 
	C489.915924,489.982422 490.635803,490.171814 491.057068,490.437469 
	C497.675385,494.611633 504.320190,498.744812 510.893433,502.988770 
	C512.652222,504.124329 514.165039,505.634430 515.838745,506.909668 
	C518.622253,509.030457 521.450928,511.092102 524.248108,513.195129 
	C525.799683,514.361694 527.171387,516.232727 528.890991,516.629333 
	C535.985046,518.265503 541.826721,522.018921 547.559204,526.257568 
	C550.799622,528.653625 554.502319,530.447449 558.078125,532.360474 
	C561.630249,534.260864 565.384033,535.798523 568.864258,537.814880 
	C572.038513,539.653992 574.964600,541.921326 578.000000,544.000000 
M298.329865,440.499390 
	C298.331268,444.492401 298.332672,448.485382 298.334076,452.478394 
	C298.337006,460.675385 298.337769,460.684998 306.681732,460.044800 
	C307.293579,459.997833 307.883820,459.669006 308.917999,459.328247 
	C308.917999,453.967407 308.770905,448.667145 309.030670,443.386902 
	C309.089081,442.199432 310.386688,440.300995 311.423309,440.059753 
	C317.785217,438.579193 319.855072,439.699036 322.849976,445.513123 
	C324.296783,448.321930 325.731720,451.136841 327.182587,453.943542 
	C330.787689,460.917450 332.502838,461.602631 342.000183,458.881256 
	C338.239502,452.174133 334.627197,445.731628 330.834595,438.967560 
	C338.063293,436.361176 339.534363,430.888336 339.159546,424.392578 
	C339.035156,422.236694 339.175354,420.066895 339.121094,417.905304 
	C338.907440,409.395966 334.673248,405.064880 326.119568,404.902557 
	C318.468994,404.757416 310.808319,405.029358 303.162781,404.783905 
	C299.494110,404.666138 298.169800,405.774567 298.251587,409.553802 
	C298.467590,419.531677 298.327881,429.517212 298.329865,440.499390 
M252.755417,450.145142 
	C248.222305,450.538452 243.695114,451.035370 239.154373,451.295654 
	C234.714539,451.550140 232.880264,449.198486 232.937378,444.847107 
	C233.044586,436.681976 233.054092,428.513275 232.938446,420.348389 
	C232.871964,415.654877 235.153046,413.658691 239.639175,413.676971 
	C244.472321,413.696655 249.305817,413.700562 254.138840,413.667603 
	C260.626617,413.623352 261.778656,412.181335 260.777710,405.135437 
	C251.372452,405.135437 241.899124,404.737122 232.480469,405.282745 
	C226.702057,405.617523 222.989563,410.349457 222.896301,416.242340 
	C222.727539,426.905853 222.711868,437.575714 222.874695,448.239197 
	C222.982758,455.317078 227.306305,459.754700 234.457779,459.995728 
	C242.781784,460.276276 251.122177,460.033203 259.453217,460.162628 
	C262.259064,460.206207 263.286011,459.123474 263.244415,456.350250 
	C263.136902,449.185364 263.008881,442.009491 263.297211,434.854431 
	C263.458496,430.852448 262.056915,429.323700 258.163147,429.851044 
	C256.588501,430.064331 254.992218,430.117584 252.961029,430.278961 
	C252.961029,436.928223 252.961029,443.071442 252.755417,450.145142 
M285.866272,412.629028 
	C285.866364,411.963348 285.796783,411.289062 285.877899,410.633392 
	C286.392883,406.470612 285.416626,404.323181 280.381073,404.360931 
	C275.508820,404.397430 275.095612,406.545837 275.136993,410.443939 
	C275.296051,425.420044 275.361053,440.401489 275.106720,455.374939 
	C275.031036,459.832031 276.863007,460.587189 280.709778,460.550201 
	C284.397583,460.514801 286.027954,459.693634 285.954834,455.530548 
	C285.709412,441.555634 285.864319,427.573700 285.866272,412.629028 
z"/>
<path fill="#9E96FC" opacity="1.000000" stroke="none" 
	d="
M811.000000,279.000000 
	C811.000000,333.687561 811.000000,388.375122 810.532166,443.531342 
	C799.187134,445.813782 789.179443,441.333496 778.794067,439.611664 
	C777.762695,439.440643 776.917053,438.326141 775.908936,437.794281 
	C774.640259,437.124939 773.334473,436.233368 771.972839,436.081390 
	C764.367004,435.232574 756.589722,437.657043 749.257446,432.293213 
	C744.342407,428.697662 737.902649,426.762268 731.202881,427.685822 
	C730.208130,427.822937 729.057129,426.306427 727.883423,425.758209 
	C723.677368,423.793427 719.435547,420.356415 715.197937,420.342682 
	C707.299683,420.317108 701.492432,416.397125 695.124084,413.050110 
	C691.309692,411.045410 687.166565,409.666199 683.096924,407.588287 
	C680.986572,402.606171 676.953308,405.148193 674.052307,405.251984 
	C672.778503,405.297577 671.636597,409.030670 670.116455,410.934998 
	C669.373901,410.290741 668.643066,409.842163 668.570801,409.304993 
	C667.104370,398.404633 666.714600,397.993683 655.757568,395.864563 
	C654.806335,395.679749 653.501221,395.419098 653.071594,394.742249 
	C648.926208,388.212555 640.896118,388.170593 635.375427,383.983276 
	C633.680420,382.697662 631.917480,381.491516 630.119385,380.353699 
	C622.996399,375.846527 615.830933,371.406311 608.724976,366.872772 
	C607.643494,366.182800 606.918945,364.906158 605.813293,364.285736 
	C600.300903,361.192505 593.324280,359.404907 589.522888,354.908875 
	C585.140503,349.725739 576.138489,349.579254 575.109741,341.192657 
	C575.055237,340.748505 573.733765,340.482544 573.025330,340.091553 
	C570.968872,338.956635 568.790588,337.982208 566.911926,336.602020 
	C564.968994,335.174652 563.586304,332.765869 561.491394,331.808167 
	C556.645447,329.592804 555.136658,322.763885 548.761841,322.817902 
	C548.506042,322.820068 548.316650,321.948486 547.973206,321.608368 
	C539.231873,312.952911 530.883362,303.839935 521.591614,295.820343 
	C513.965576,289.238525 510.375732,278.871918 500.739319,274.356628 
	C500.403351,274.199219 500.160339,273.492828 500.153137,273.037903 
	C500.068054,267.665405 495.981018,265.956543 492.172791,263.634979 
	C490.335999,262.515198 489.254639,260.031799 488.067413,258.026062 
	C487.516876,257.095978 487.819275,255.643829 487.238220,254.751999 
	C484.861542,251.104050 482.191589,247.646988 479.819000,243.996552 
	C476.173553,238.387665 474.609894,237.739410 468.409027,239.476578 
	C467.360992,237.731430 466.473694,236.144348 465.249298,234.885025 
	C460.182709,229.673752 455.014099,224.561661 449.969971,219.073914 
	C451.367462,218.663910 453.044861,218.048737 453.913086,218.633987 
	C455.805603,219.909698 457.224060,221.865433 458.947693,223.419708 
	C462.852203,226.940765 466.824188,230.387039 471.085815,234.143204 
	C471.513000,232.790680 471.779602,232.393417 471.673767,232.201523 
	C471.288513,231.502838 470.906311,230.703735 470.296051,230.243011 
	C464.047699,225.525589 459.591949,219.006531 456.870819,212.166702 
	C454.962128,207.368973 451.600281,203.810211 449.689423,198.976898 
	C451.599304,191.604477 453.493927,184.571991 455.286926,177.513702 
	C456.048004,174.517517 455.050140,172.543030 451.653320,172.559875 
	C445.670502,172.589539 439.687927,172.762863 433.705536,172.749695 
	C430.799408,172.743301 429.714600,174.275879 429.094482,176.880447 
	C428.332703,180.080017 427.159149,183.181519 425.990906,186.007782 
	C419.197510,172.248596 412.701569,158.743607 405.908508,145.389755 
	C401.941284,137.590912 401.325378,128.076309 394.374084,122.003799 
	C398.271698,123.469742 401.918579,124.692184 405.280518,126.457275 
	C407.942200,127.854698 409.509613,127.426918 410.986694,124.930679 
	C413.781097,120.208252 416.476990,115.395966 419.677856,110.955544 
	C422.291840,107.329285 421.160126,105.588440 417.738831,103.631493 
	C408.169952,98.158226 397.758820,95.553421 386.993164,93.563004 
	C383.785217,79.297440 380.051849,65.537094 377.516510,51.559448 
	C374.477173,34.803123 372.459900,17.861422 370.000000,0.999998 
	C429.354218,1.000000 488.708466,1.000000 548.554626,1.407206 
	C550.658630,9.762531 551.685852,17.885571 554.000305,25.623594 
	C559.372253,43.583584 564.565430,61.668034 571.333496,79.119347 
	C578.043701,96.421555 587.325623,112.526695 597.178650,128.407822 
	C610.677307,150.164841 626.467407,169.878540 644.525574,187.773468 
	C654.729431,197.885101 666.126892,206.797531 677.046631,216.180328 
	C693.922607,230.681015 712.992188,241.899689 732.797974,251.676437 
	C746.718445,258.548004 760.513550,265.976715 775.892273,269.605713 
	C787.677551,272.386810 799.303284,275.843689 811.000000,279.000000 
M437.076874,119.413513 
	C435.473083,117.732079 433.875458,116.044724 432.264069,114.370583 
	C429.923431,111.938835 427.979950,111.692093 426.017090,114.995865 
	C422.964233,120.134377 419.419403,124.989426 416.540100,130.216370 
	C415.773834,131.607330 415.932922,134.570862 416.928650,135.697128 
	C423.395752,143.012085 427.497803,151.377655 429.044617,160.955200 
	C429.577393,164.254028 431.255646,165.504120 434.400696,165.476913 
	C439.884155,165.429443 445.368927,165.435226 450.852173,165.499435 
	C454.415131,165.541153 455.785004,164.384552 455.302795,160.400253 
	C453.448151,145.075790 447.414246,131.699631 437.076874,119.413513 
M494.744598,170.872131 
	C495.433502,170.088531 496.122406,169.304932 496.811310,168.521347 
	C495.614868,167.846680 494.434082,166.622665 493.219421,166.588104 
	C486.280090,166.390701 479.328888,166.356339 472.391418,166.574463 
	C471.113922,166.614624 469.880859,168.066986 468.627289,168.867493 
	C469.934448,169.573685 471.225739,170.853714 472.551392,170.890289 
	C479.656342,171.086349 486.769897,170.972565 494.744598,170.872131 
M452.379456,115.924500 
	C457.073151,111.229385 461.838440,106.601868 466.395264,101.777481 
	C467.224365,100.899696 467.201691,99.217377 467.572205,97.906464 
	C466.146088,98.169167 464.259949,97.941223 463.369873,98.775703 
	C458.287292,103.540764 453.356659,108.478828 448.590759,113.561043 
	C447.682556,114.529518 447.743744,116.407021 447.357697,117.865128 
	C448.864258,117.385635 450.370789,116.906143 452.379456,115.924500 
M466.899506,200.553253 
	C469.484009,201.627945 472.021576,202.851440 474.680603,203.689728 
	C475.514923,203.952744 476.675873,203.179703 477.687317,202.880905 
	C477.225616,201.809967 477.053894,200.201416 476.248779,199.767166 
	C473.654968,198.368134 470.889465,197.194382 468.064972,196.354721 
	C466.611511,195.922623 464.892670,196.383026 463.293762,196.440125 
	C464.263611,197.709610 465.233459,198.979095 466.899506,200.553253 
M463.496887,139.072342 
	C462.182709,142.724060 464.310608,142.854065 466.770386,142.009781 
	C469.904663,140.934006 472.990540,139.645844 475.936676,138.135895 
	C476.848511,137.668549 477.236542,136.179214 477.864410,135.157791 
	C476.601166,134.828323 475.136505,133.919083 474.111420,134.275177 
	C470.674408,135.469147 467.394318,137.114792 463.496887,139.072342 
z"/>
<path fill="#9A91FC" opacity="1.000000" stroke="none" 
	d="
M369.531372,0.999998 
	C372.459900,17.861422 374.477173,34.803123 377.516510,51.559448 
	C380.051849,65.537094 383.785217,79.297440 386.526642,93.598907 
	C364.151611,93.364044 344.576202,98.932846 328.649323,114.919800 
	C325.411987,118.169342 326.202271,120.251129 329.191132,122.515671 
	C332.592987,125.093117 336.231995,127.373070 339.514313,130.088821 
	C343.427582,133.326599 346.476501,133.248230 350.787476,130.025360 
	C363.725403,120.353134 378.247009,117.410156 394.000458,121.994370 
	C401.325378,128.076309 401.941284,137.590912 405.908508,145.389755 
	C412.701569,158.743607 419.197510,172.248596 425.940002,186.349777 
	C416.674988,212.169418 385.758820,225.069794 361.042816,213.943451 
	C357.573090,212.381500 355.333435,212.486435 352.965759,215.558121 
	C349.733093,219.752106 346.244965,223.757812 342.726227,227.719788 
	C340.202881,230.560944 340.345795,232.795822 343.918762,234.300171 
	C350.036377,236.875900 356.055603,239.945389 362.431885,241.562592 
	C367.314148,242.800858 369.264648,244.755844 368.557617,249.607803 
	C368.343597,251.076385 368.863892,252.726273 368.392548,254.061874 
	C367.931305,255.368942 366.697296,256.440216 365.690247,257.509247 
	C364.139191,259.155792 361.629059,260.435608 361.016449,262.348389 
	C352.742706,288.182190 353.971832,314.178253 360.409088,340.142303 
	C362.662750,349.232178 365.669434,358.076752 372.529449,364.950073 
	C378.151581,370.583099 384.319855,370.588806 389.279541,364.367676 
	C392.343231,360.524811 394.931458,356.109406 396.840271,351.575134 
	C402.958344,337.042267 404.726837,321.543030 406.508850,306.002136 
	C410.965851,306.173401 414.047089,307.363770 415.638000,311.763641 
	C416.660858,314.592560 418.757233,317.166656 420.812012,319.461365 
	C425.077057,324.224426 429.974213,328.449799 433.992188,333.398987 
	C439.957764,340.747162 446.312317,347.645355 452.942871,354.401855 
	C456.104950,357.623993 457.506012,362.594116 462.386383,364.489807 
	C462.957489,364.711609 462.811310,366.415924 463.338654,367.205139 
	C464.027100,368.235535 464.980133,369.132111 465.954163,369.919464 
	C467.805298,371.415802 469.897827,372.637787 471.628082,374.254181 
	C474.910583,377.320648 477.898163,380.705109 481.209106,383.738220 
	C485.932526,388.065247 490.746246,392.305267 495.698486,396.366516 
	C498.538177,398.695221 499.144348,401.331635 497.534302,404.692719 
	C490.079010,404.827087 483.080872,404.727875 476.095581,404.982483 
	C469.147583,405.235687 465.286530,407.810669 464.981415,414.015442 
	C464.386322,426.116943 464.492523,438.278168 464.922760,450.392853 
	C465.103271,455.475647 469.428497,459.590881 474.429932,459.807068 
	C483.856567,460.214417 493.313293,459.924622 502.703064,459.924622 
	C503.956909,451.299255 503.956909,451.298889 495.819092,451.297668 
	C490.990112,451.296936 486.159729,451.224030 481.332611,451.319000 
	C477.006927,451.404114 474.835266,449.569733 474.883209,445.088593 
	C474.972290,436.763733 474.972412,428.436707 474.890686,420.111725 
	C474.847046,415.664337 477.063599,413.723969 481.314148,413.716766 
	C486.143097,413.708588 490.972137,413.727570 495.800964,413.703705 
	C501.969635,413.673218 502.612671,413.074951 503.536194,406.982056 
	C506.558563,406.975342 509.218994,406.988342 511.938995,407.466736 
	C511.998566,425.157440 511.998566,442.382721 511.998566,459.452240 
	C522.010315,461.189026 522.245850,461.002319 522.247559,452.127869 
	C522.248352,448.203583 522.247681,444.279297 522.247681,440.504181 
	C532.839600,438.831116 532.862854,438.818695 537.374207,447.265076 
	C538.622070,449.601410 539.980225,451.942596 540.772888,454.444672 
	C542.282654,459.210083 545.281311,460.728241 550.130554,460.221222 
	C554.778137,459.735321 555.805847,458.537903 553.533936,454.376312 
	C551.230103,450.156189 548.595947,446.116394 546.438232,441.929626 
	C548.693298,441.764130 550.787292,441.132751 552.503784,441.681671 
	C555.939514,442.780396 559.168640,444.525146 562.537659,446.436646 
	C563.269653,457.322723 567.101624,460.937347 577.549194,461.013763 
	C580.365662,461.034363 583.181641,461.116943 586.085693,461.510986 
	C587.026062,462.549438 587.773926,463.516876 588.750427,463.896515 
	C591.816895,465.088776 595.158997,465.690979 598.056213,467.179749 
	C611.556213,474.117065 624.925110,481.308716 638.377686,488.339172 
	C643.831482,491.189392 649.345032,493.931915 654.904846,496.568634 
	C656.495789,497.323181 658.347168,497.523529 660.073303,497.999115 
	C664.007324,499.083130 667.990967,500.021179 671.855530,501.314056 
	C676.211182,502.771210 680.487183,504.482086 684.744507,506.213593 
	C688.767700,507.849854 692.723877,509.651398 696.705750,511.388763 
	C700.201599,512.914062 703.565369,514.946472 707.211426,515.881470 
	C715.127502,517.911499 723.210327,519.280090 731.181091,521.110291 
	C740.919189,523.346375 750.587708,525.888000 760.335815,528.077332 
	C764.855652,529.092468 769.763000,528.862427 774.024719,530.454712 
	C786.021179,534.936951 798.310059,536.587769 811.000000,536.000000 
	C811.000000,538.661804 811.000000,541.323669 811.000000,543.992737 
	C733.645752,544.000000 656.291565,544.000000 578.468628,544.000000 
	C574.964600,541.921326 572.038513,539.653992 568.864258,537.814880 
	C565.384033,535.798523 561.630249,534.260864 558.078125,532.360474 
	C554.502319,530.447449 550.799622,528.653625 547.559204,526.257568 
	C541.826721,522.018921 535.985046,518.265503 528.890991,516.629333 
	C527.171387,516.232727 525.799683,514.361694 524.248108,513.195129 
	C521.450928,511.092102 518.622253,509.030457 515.838745,506.909668 
	C514.165039,505.634430 512.652222,504.124329 510.893433,502.988770 
	C504.320190,498.744812 497.675385,494.611633 491.057068,490.437469 
	C490.635803,490.171814 489.915924,489.982422 489.832489,489.637268 
	C488.310852,483.342041 481.716156,482.501373 477.842560,478.711060 
	C473.005432,473.977814 466.803894,470.652649 461.278137,466.601257 
	C459.587219,465.361542 458.263824,463.630493 456.622711,462.310211 
	C454.912201,460.934113 453.021301,459.782288 451.025940,458.135925 
	C456.580719,453.576538 456.284149,447.490326 455.953674,441.447388 
	C455.616150,435.275909 452.815460,431.657654 446.761444,429.937927 
	C441.518982,428.448730 436.199829,427.202332 430.870117,426.055298 
	C426.111603,425.031158 426.800964,421.447449 427.010040,418.196777 
	C427.225037,414.853577 429.475403,413.869781 432.562683,413.938751 
	C437.385529,414.046448 442.214111,414.075409 447.035767,413.955322 
	C448.628357,413.915649 450.819336,413.830780 451.651398,412.847839 
	C452.968018,411.292450 453.695679,409.000397 453.933472,406.934937 
	C453.993958,406.409698 451.282898,404.998108 449.820648,404.960907 
	C442.672089,404.778992 435.506348,404.711792 428.363586,405.009644 
	C420.116333,405.353577 416.049561,409.854767 415.991638,418.024719 
	C415.977478,420.018768 415.883392,422.012268 415.826080,424.005981 
	C412.597382,420.846100 409.368713,417.686188 406.347290,413.999451 
	C410.032074,411.572601 410.736664,408.796753 409.333527,405.028137 
	C396.763733,405.028137 384.387085,405.028137 372.010437,405.028137 
	C360.635254,391.165009 348.569519,377.803040 338.055267,363.315125 
	C324.109131,344.098206 311.068298,324.198792 298.227356,304.214294 
	C289.702118,290.946442 281.593262,277.330627 274.414581,263.299347 
	C266.327820,247.493088 259.096893,231.212189 252.228989,214.829514 
	C245.491547,198.758041 239.411667,182.394333 233.551407,165.977463 
	C229.591858,154.885239 226.030273,143.600677 223.145050,132.186188 
	C217.897644,111.426575 212.699219,90.620758 208.600418,69.615654 
	C205.493561,53.693970 204.158203,37.428497 201.969452,21.324850 
	C201.082703,14.800510 200.023132,8.299660 199.021088,1.394060 
	C255.687561,1.000000 312.375122,1.000000 369.531372,0.999998 
M305.933105,165.576767 
	C305.101868,188.526627 312.913177,207.949005 329.521271,223.872940 
	C332.205994,226.447067 334.230865,226.426193 336.508759,223.575424 
	C340.038879,219.157501 343.527191,214.693039 347.297333,210.484940 
	C349.569763,207.948517 348.571045,206.538651 346.817322,204.201202 
	C342.573975,198.545517 337.761688,192.928391 335.180908,186.492828 
	C329.458130,172.222046 330.133545,157.827072 338.304901,144.353653 
	C340.354156,140.974731 340.202789,138.897964 336.577240,136.700089 
	C332.476562,134.214188 328.716736,131.121567 324.998352,128.062286 
	C321.420959,125.119041 318.906494,125.579742 316.660553,129.638275 
	C310.620270,140.553375 306.458130,152.012039 305.933105,165.576767 
M306.178284,224.668213 
	C302.192017,228.675751 298.133240,232.615891 294.286865,236.753494 
	C293.601257,237.490982 293.796722,239.047531 293.585358,240.225861 
	C294.632416,240.246368 296.125763,240.729675 296.658020,240.216385 
	C302.517578,234.565720 308.269012,228.799667 313.903137,222.924362 
	C314.376984,222.430237 314.041595,220.782547 313.580231,219.948410 
	C313.386139,219.597458 311.629486,219.626831 311.030243,220.077652 
	C309.449280,221.267014 308.113007,222.781662 306.178284,224.668213 
M276.532166,170.962509 
	C281.031342,170.955460 285.537903,171.081863 290.023712,170.833450 
	C290.968140,170.781143 291.836395,169.353119 292.739716,168.558990 
	C291.866089,167.915176 291.003265,166.730164 290.117096,166.712448 
	C282.458344,166.559204 274.793549,166.537231 267.136139,166.715347 
	C266.231964,166.736404 265.361298,168.197952 264.475067,168.991714 
	C265.500732,169.653244 266.478790,170.772858 267.561554,170.885437 
	C270.198883,171.159698 272.884827,170.966904 276.532166,170.962509 
M295.704498,102.703178 
	C301.098755,108.042473 306.493011,113.381767 311.996887,118.829559 
	C315.010895,117.253975 314.584991,115.327408 312.624573,113.338417 
	C307.851044,108.495338 303.097961,103.626083 298.146637,98.969437 
	C297.174469,98.055145 295.347107,98.050156 293.914185,97.625801 
	C294.342407,99.149971 294.770630,100.674141 295.704498,102.703178 
M284.743134,137.787201 
	C288.103241,139.240402 291.413483,140.834015 294.855652,142.056091 
	C295.813019,142.395950 297.161041,141.635422 298.329834,141.379730 
	C297.834473,140.314896 297.615326,138.683640 296.795624,138.283951 
	C293.363770,136.610550 289.843628,134.971786 286.178497,133.967178 
	C282.931641,133.077225 282.150909,134.634384 284.743134,137.787201 
M285.491180,203.961853 
	C289.161377,202.498062 292.893951,201.165543 296.455963,199.473953 
	C297.298126,199.073990 297.567108,197.467102 298.099731,196.415405 
	C297.109131,196.151077 295.951508,195.419037 295.156616,195.702866 
	C291.589172,196.976730 288.033600,198.359192 284.658264,200.067078 
	C282.704651,201.055603 282.123138,202.709915 285.491180,203.961853 
z"/>
<path fill="#938AFC" opacity="1.000000" stroke="none" 
	d="
M42.531342,1.000000 
	C43.998428,10.390808 44.875340,19.796501 46.023445,29.168974 
	C47.795254,43.633011 49.541706,58.105770 51.690399,72.516457 
	C53.866817,87.113083 55.995110,101.751381 59.094204,116.167267 
	C63.027988,134.465851 67.496986,152.675980 72.510849,170.708588 
	C77.930710,190.201370 83.868752,209.571548 90.297729,228.754929 
	C94.778557,242.125229 100.245979,255.182922 105.674606,268.212830 
	C111.996048,283.385651 118.315933,298.587769 125.444885,313.387756 
	C133.086777,329.252594 141.290619,344.878113 149.948654,360.213165 
	C158.358078,375.107910 167.601227,389.534851 176.612808,404.083893 
	C178.144760,406.557220 180.354126,408.610931 182.510803,411.288696 
	C178.053894,425.863464 173.237076,439.976562 168.749573,454.193634 
	C168.207520,455.910889 168.790497,459.289429 169.982895,459.999725 
	C173.372803,462.019165 178.461243,460.131866 179.551086,457.214783 
	C182.843765,448.401459 182.843750,448.401398 192.085098,448.401855 
	C193.579590,448.401947 195.097839,448.573517 196.564056,448.370056 
	C200.639709,447.804535 202.921494,449.445892 203.355515,453.547729 
	C203.947586,459.143433 207.134659,461.099396 212.470779,460.164917 
	C213.608948,459.965576 214.775558,459.928772 215.929077,459.817139 
	C220.676941,465.769135 225.391296,471.748230 230.180817,477.666504 
	C236.734772,485.765076 243.158081,493.980499 249.986160,501.842957 
	C256.594818,509.452698 263.583923,516.736938 270.520996,524.055054 
	C276.072937,529.911926 281.811493,535.591614 287.415558,541.399902 
	C287.816132,541.815063 287.792023,542.639954 287.982666,543.637207 
	C192.381348,544.000000 96.762688,544.000000 1.072019,544.000000 
	C1.072019,363.000000 1.072019,182.000015 1.077607,1.000005 
	C14.743025,1.000000 28.402855,1.000000 42.531342,1.000000 
M163.880753,459.107727 
	C163.450134,456.528229 163.332993,453.847260 162.536163,451.386322 
	C158.462112,438.804108 154.196243,426.284119 150.030273,413.731445 
	C147.056854,404.772156 147.080551,404.871246 137.526276,404.922119 
	C134.595352,404.937744 133.064072,405.774780 132.126038,408.710693 
	C127.376053,423.577240 122.371101,438.362152 117.571655,453.213196 
	C116.900078,455.291321 116.870018,457.576782 116.372276,460.909271 
	C120.926712,458.947601 126.003296,463.589752 128.087173,456.847778 
	C130.709641,448.363220 130.794785,448.389496 139.869019,448.389618 
	C140.700470,448.389618 141.531998,448.382538 142.363358,448.390808 
	C151.262619,448.479126 150.251846,447.538818 152.380188,455.842621 
	C153.306747,459.457581 155.019119,460.919952 158.613037,460.399017 
	C160.238007,460.163513 161.876755,460.023010 163.880753,459.107727 
M76.987831,455.631744 
	C77.077538,457.245483 77.167244,458.859253 77.286926,461.012085 
	C83.404480,461.012085 89.190269,461.092529 94.973000,460.993591 
	C104.025986,460.838684 108.688103,456.119781 108.780182,446.942810 
	C108.875404,437.452698 108.805542,427.960876 108.807297,418.469818 
	C108.808090,414.185974 108.807434,409.902130 108.807434,405.426788 
	C104.973625,405.426788 101.799232,405.426788 98.178978,405.426788 
	C98.178978,407.673462 98.179214,409.480682 98.178932,411.287903 
	C98.177208,422.610596 98.222763,433.933563 98.153046,445.255829 
	C98.119553,450.695892 96.740555,452.003143 91.302467,452.097534 
	C87.806778,452.158234 84.284454,451.875366 80.825005,452.235596 
	C79.479996,452.375641 78.274948,453.860016 76.987831,455.631744 
z"/>
<path fill="#A39BFD" opacity="1.000000" stroke="none" 
	d="
M811.000000,278.531342 
	C799.303284,275.843689 787.677551,272.386810 775.892273,269.605713 
	C760.513550,265.976715 746.718445,258.548004 732.797974,251.676437 
	C712.992188,241.899689 693.922607,230.681015 677.046631,216.180328 
	C666.126892,206.797531 654.729431,197.885101 644.525574,187.773468 
	C626.467407,169.878540 610.677307,150.164841 597.178650,128.407822 
	C587.325623,112.526695 578.043701,96.421555 571.333496,79.119347 
	C564.565430,61.668034 559.372253,43.583584 554.000305,25.623594 
	C551.685852,17.885571 550.658630,9.762531 549.023315,1.407206 
	C636.262512,1.000000 723.525085,1.000000 811.000000,1.000000 
	C811.000000,93.354118 811.000000,185.708405 811.000000,278.531342 
z"/>
<path fill="#9B93FC" opacity="1.000000" stroke="none" 
	d="
M562.483032,446.003204 
	C559.168640,444.525146 555.939514,442.780396 552.503784,441.681671 
	C550.787292,441.132751 548.693298,441.764130 546.203979,441.659637 
	C546.136475,440.212921 546.276062,438.434875 547.195801,437.815826 
	C551.173096,435.138550 552.865784,431.452606 552.914673,426.839539 
	C552.948120,423.686249 553.052856,420.524353 552.877625,417.380096 
	C552.458862,409.864624 547.708984,405.125244 540.114197,404.937836 
	C531.985413,404.737244 523.846069,404.786987 515.716675,404.968414 
	C514.423096,404.997314 513.157776,406.291901 511.879425,407.001312 
	C509.218994,406.988342 506.558563,406.975342 503.427307,406.600708 
	C501.303345,405.697449 499.650208,405.155792 497.997101,404.614166 
	C499.144348,401.331635 498.538177,398.695221 495.698486,396.366516 
	C490.746246,392.305267 485.932526,388.065247 481.209106,383.738220 
	C477.898163,380.705109 474.910583,377.320648 471.628082,374.254181 
	C469.897827,372.637787 467.805298,371.415802 465.954163,369.919464 
	C464.980133,369.132111 464.027100,368.235535 463.338654,367.205139 
	C462.811310,366.415924 462.957489,364.711609 462.386383,364.489807 
	C457.506012,362.594116 456.104950,357.623993 452.942871,354.401855 
	C446.312317,347.645355 439.957764,340.747162 433.992188,333.398987 
	C429.974213,328.449799 425.077057,324.224426 420.812012,319.461365 
	C418.757233,317.166656 416.660858,314.592560 415.638000,311.763641 
	C414.047089,307.363770 410.965851,306.173401 406.461487,305.537476 
	C405.858063,291.277618 404.925903,277.590118 400.962616,264.253052 
	C399.806641,260.363068 398.522064,256.966614 392.900940,257.809601 
	C392.900940,253.943756 393.116791,250.472809 392.838654,247.041916 
	C392.574402,243.782135 394.249634,242.747650 396.983795,242.062592 
	C400.828674,241.099228 404.735138,240.162384 408.376190,238.641708 
	C427.121094,230.812897 440.858704,217.639420 449.633057,199.306412 
	C451.600281,203.810211 454.962128,207.368973 456.870819,212.166702 
	C459.591949,219.006531 464.047699,225.525589 470.296051,230.243011 
	C470.906311,230.703735 471.288513,231.502838 471.673767,232.201523 
	C471.779602,232.393417 471.513000,232.790680 471.085815,234.143204 
	C466.824188,230.387039 462.852203,226.940765 458.947693,223.419708 
	C457.224060,221.865433 455.805603,219.909698 453.913086,218.633987 
	C453.044861,218.048737 451.367462,218.663910 449.624939,219.034012 
	C445.636627,220.341354 446.739288,222.278763 448.422180,224.004822 
	C453.500610,229.213577 458.591797,234.419281 463.918915,239.366776 
	C464.793091,240.178665 466.885406,239.678925 468.414734,239.785370 
	C474.609894,237.739410 476.173553,238.387665 479.819000,243.996552 
	C482.191589,247.646988 484.861542,251.104050 487.238220,254.751999 
	C487.819275,255.643829 487.516876,257.095978 488.067413,258.026062 
	C489.254639,260.031799 490.335999,262.515198 492.172791,263.634979 
	C495.981018,265.956543 500.068054,267.665405 500.153137,273.037903 
	C500.160339,273.492828 500.403351,274.199219 500.739319,274.356628 
	C510.375732,278.871918 513.965576,289.238525 521.591614,295.820343 
	C530.883362,303.839935 539.231873,312.952911 547.973206,321.608368 
	C548.316650,321.948486 548.506042,322.820068 548.761841,322.817902 
	C555.136658,322.763885 556.645447,329.592804 561.491394,331.808167 
	C563.586304,332.765869 564.968994,335.174652 566.911926,336.602020 
	C568.790588,337.982208 570.968872,338.956635 573.025330,340.091553 
	C573.733765,340.482544 575.055237,340.748505 575.109741,341.192657 
	C576.138489,349.579254 585.140503,349.725739 589.522888,354.908875 
	C593.324280,359.404907 600.300903,361.192505 605.813293,364.285736 
	C606.918945,364.906158 607.643494,366.182800 608.724976,366.872772 
	C615.830933,371.406311 622.996399,375.846527 630.119385,380.353699 
	C631.917480,381.491516 633.680420,382.697662 635.375427,383.983276 
	C640.896118,388.170593 648.926208,388.212555 653.071594,394.742249 
	C653.501221,395.419098 654.806335,395.679749 655.757568,395.864563 
	C666.714600,397.993683 667.104370,398.404633 668.570801,409.304993 
	C668.643066,409.842163 669.373901,410.290741 670.064087,411.357483 
	C668.371033,422.996796 666.411804,434.059204 664.452637,445.121613 
	C660.629211,436.093689 657.634338,427.147247 655.521484,417.997101 
	C654.393433,413.111633 651.531616,413.273193 647.865845,413.213104 
	C644.193176,413.152924 641.778564,413.547852 640.716003,417.994659 
	C638.524658,427.166290 635.561523,436.153534 632.915955,445.216644 
	C631.659546,443.660278 631.241089,442.138184 630.956726,440.591431 
	C629.001587,429.956848 627.156494,419.300781 625.040039,408.698730 
	C624.759460,407.292969 623.308838,405.291504 622.114258,405.063507 
	C619.295349,404.525543 616.304138,404.890900 612.757446,404.890900 
	C613.121155,408.035980 613.165283,410.348450 613.679932,412.550903 
	C616.783752,425.834381 619.853577,439.128754 623.220581,452.346649 
	C625.470642,461.179779 623.361267,459.867493 633.208862,460.213379 
	C636.915955,460.343567 638.615173,459.085907 639.320068,455.475983 
	C640.018433,451.899445 641.301086,448.435638 642.349548,444.929016 
	C644.080566,439.139282 645.829407,433.354919 647.570679,427.568298 
	C647.942627,427.596954 648.314575,427.625641 648.686462,427.654297 
	C651.970581,438.704468 655.254639,449.754608 658.534729,460.791382 
	C660.117920,460.879791 661.268494,460.984863 662.420410,461.001862 
	C670.695007,461.124084 670.710327,461.122253 672.705383,453.217010 
	C675.751404,441.147156 678.773987,429.071320 682.167542,416.935242 
	C685.227234,415.487061 686.378113,413.956360 682.977295,411.598969 
	C683.036133,410.134460 683.103699,409.070160 683.171204,408.005859 
	C687.166565,409.666199 691.309692,411.045410 695.124084,413.050110 
	C701.492432,416.397125 707.299683,420.317108 715.197937,420.342682 
	C719.435547,420.356415 723.677368,423.793427 727.883423,425.758209 
	C729.057129,426.306427 730.208130,427.822937 731.202881,427.685822 
	C737.902649,426.762268 744.342407,428.697662 749.257446,432.293213 
	C756.589722,437.657043 764.367004,435.232574 771.972839,436.081390 
	C773.334473,436.233368 774.640259,437.124939 775.908936,437.794281 
	C776.917053,438.326141 777.762695,439.440643 778.794067,439.611664 
	C789.179443,441.333496 799.187134,445.813782 810.532166,444.000000 
	C811.000000,474.354218 811.000000,504.708466 811.000000,535.531372 
	C798.310059,536.587769 786.021179,534.936951 774.024719,530.454712 
	C769.763000,528.862427 764.855652,529.092468 760.335815,528.077332 
	C750.587708,525.888000 740.919189,523.346375 731.181091,521.110291 
	C723.210327,519.280090 715.127502,517.911499 707.211426,515.881470 
	C703.565369,514.946472 700.201599,512.914062 696.705750,511.388763 
	C692.723877,509.651398 688.767700,507.849854 684.744507,506.213593 
	C680.487183,504.482086 676.211182,502.771210 671.855530,501.314056 
	C667.990967,500.021179 664.007324,499.083130 660.073303,497.999115 
	C658.347168,497.523529 656.495789,497.323181 654.904846,496.568634 
	C649.345032,493.931915 643.831482,491.189392 638.377686,488.339172 
	C624.925110,481.308716 611.556213,474.117065 598.056213,467.179749 
	C595.158997,465.690979 591.816895,465.088776 588.750427,463.896515 
	C587.773926,463.516876 587.026062,462.549438 586.539795,461.453735 
	C588.235413,461.039093 589.564758,461.015320 590.894226,461.005127 
	C601.730225,460.921997 605.988281,456.677643 606.004272,445.901794 
	C606.018311,436.427795 606.066650,426.953247 605.989014,417.479858 
	C605.918579,408.891266 601.337524,404.234375 592.724243,404.025238 
	C587.076416,403.888092 581.420776,403.910431 575.771851,404.020508 
	C566.654541,404.198181 562.857544,408.009705 562.726990,417.092407 
	C562.588501,426.728485 562.559692,436.366211 562.483032,446.003204 
z"/>
<path fill="#FDFDFF" opacity="1.000000" stroke="none" 
	d="
M298.329834,439.999542 
	C298.327881,429.517212 298.467590,419.531677 298.251587,409.553802 
	C298.169800,405.774567 299.494110,404.666138 303.162781,404.783905 
	C310.808319,405.029358 318.468994,404.757416 326.119568,404.902557 
	C334.673248,405.064880 338.907440,409.395966 339.121094,417.905304 
	C339.175354,420.066895 339.035156,422.236694 339.159546,424.392578 
	C339.534363,430.888336 338.063293,436.361176 330.834595,438.967560 
	C334.627197,445.731628 338.239502,452.174133 342.000183,458.881256 
	C332.502838,461.602631 330.787689,460.917450 327.182587,453.943542 
	C325.731720,451.136841 324.296783,448.321930 322.849976,445.513123 
	C319.855072,439.699036 317.785217,438.579193 311.423309,440.059753 
	C310.386688,440.300995 309.089081,442.199432 309.030670,443.386902 
	C308.770905,448.667145 308.917999,453.967407 308.917999,459.328247 
	C307.883820,459.669006 307.293579,459.997833 306.681732,460.044800 
	C298.337769,460.684998 298.337006,460.675385 298.334076,452.478394 
	C298.332672,448.485382 298.331268,444.492401 298.329834,439.999542 
M323.975494,413.769135 
	C320.155182,413.747742 316.311951,413.483398 312.527405,413.840698 
	C311.254303,413.960846 309.191254,415.582306 309.101288,416.653046 
	C308.717865,421.215942 308.938202,425.829559 308.938202,430.988190 
	C313.368805,430.988190 317.147980,430.943848 320.925598,431.001007 
	C324.492004,431.054993 327.655975,430.432617 328.774353,426.431702 
	C330.303314,420.962006 328.784027,416.266937 323.975494,413.769135 
z"/>
<path fill="#FCFCFF" opacity="1.000000" stroke="none" 
	d="
M215.905182,459.410980 
	C214.775558,459.928772 213.608948,459.965576 212.470779,460.164917 
	C207.134659,461.099396 203.947586,459.143433 203.355515,453.547729 
	C202.921494,449.445892 200.639709,447.804535 196.564056,448.370056 
	C195.097839,448.573517 193.579590,448.401947 192.085098,448.401855 
	C182.843750,448.401398 182.843765,448.401459 179.551086,457.214783 
	C178.461243,460.131866 173.372803,462.019165 169.982895,459.999725 
	C168.790497,459.289429 168.207520,455.910889 168.749573,454.193634 
	C173.237076,439.976562 178.053894,425.863464 182.841949,411.361298 
	C183.978439,409.023193 184.751495,405.627777 186.166168,405.335297 
	C189.966782,404.549438 194.050446,404.960205 197.999146,405.228271 
	C198.678726,405.274384 199.488876,406.872772 199.831085,407.891113 
	C205.056900,423.441986 210.237000,439.008362 215.350433,454.596527 
	C215.802826,455.975616 215.717102,457.531219 215.905182,459.410980 
M192.463074,439.880554 
	C194.528809,439.880554 196.594528,439.880554 199.543335,439.880554 
	C197.011536,431.419159 194.792297,424.002350 192.573059,416.585541 
	C192.165359,416.633728 191.757675,416.681915 191.349976,416.730103 
	C189.139481,424.196625 186.928986,431.663177 184.496262,439.880310 
	C187.610092,439.880310 189.576721,439.880310 192.463074,439.880554 
z"/>
<path fill="#FEFEFF" opacity="1.000000" stroke="none" 
	d="
M252.858215,449.679871 
	C252.961029,443.071442 252.961029,436.928223 252.961029,430.278961 
	C254.992218,430.117584 256.588501,430.064331 258.163147,429.851044 
	C262.056915,429.323700 263.458496,430.852448 263.297211,434.854431 
	C263.008881,442.009491 263.136902,449.185364 263.244415,456.350250 
	C263.286011,459.123474 262.259064,460.206207 259.453217,460.162628 
	C251.122177,460.033203 242.781784,460.276276 234.457779,459.995728 
	C227.306305,459.754700 222.982758,455.317078 222.874695,448.239197 
	C222.711868,437.575714 222.727539,426.905853 222.896301,416.242340 
	C222.989563,410.349457 226.702057,405.617523 232.480469,405.282745 
	C241.899124,404.737122 251.372452,405.135437 260.777710,405.135437 
	C261.778656,412.181335 260.626617,413.623352 254.138840,413.667603 
	C249.305817,413.700562 244.472321,413.696655 239.639175,413.676971 
	C235.153046,413.658691 232.871964,415.654877 232.938446,420.348389 
	C233.054092,428.513275 233.044586,436.681976 232.937378,444.847107 
	C232.880264,449.198486 234.714539,451.550140 239.154373,451.295654 
	C243.695114,451.035370 248.222305,450.538452 252.858215,449.679871 
z"/>
<path fill="#FDFDFF" opacity="1.000000" stroke="none" 
	d="
M372.002228,405.494629 
	C384.387085,405.028137 396.763733,405.028137 409.333527,405.028137 
	C410.736664,408.796753 410.032074,411.572601 406.264404,413.667114 
	C399.318359,413.810760 392.661041,413.822906 386.007141,413.678772 
	C383.259094,413.619263 382.122406,414.647919 382.157013,417.467224 
	C382.315063,430.336578 380.924896,427.532013 391.784698,427.842163 
	C393.614258,427.894409 395.449768,427.915985 397.277039,427.831848 
	C400.186615,427.697845 402.379028,427.846222 402.415283,431.877808 
	C402.450562,435.803284 400.685486,436.775452 397.310333,436.700958 
	C393.483765,436.616577 389.652283,436.760345 385.825470,436.681427 
	C383.362427,436.630676 382.346069,437.546173 382.138153,440.138977 
	C381.242340,451.311646 381.163147,451.305328 392.094604,451.305359 
	C397.877716,451.305389 403.660858,451.305359 409.716064,451.305359 
	C409.716064,454.578796 409.716064,456.994659 409.716064,459.779663 
	C397.253784,459.779663 385.029083,459.779663 371.994019,459.779663 
	C371.994019,441.771179 371.994019,423.866180 372.002228,405.494629 
z"/>
<path fill="#FDFDFF" opacity="1.000000" stroke="none" 
	d="
M415.859070,424.266968 
	C415.883392,422.012268 415.977478,420.018768 415.991638,418.024719 
	C416.049561,409.854767 420.116333,405.353577 428.363586,405.009644 
	C435.506348,404.711792 442.672089,404.778992 449.820648,404.960907 
	C451.282898,404.998108 453.993958,406.409698 453.933472,406.934937 
	C453.695679,409.000397 452.968018,411.292450 451.651398,412.847839 
	C450.819336,413.830780 448.628357,413.915649 447.035767,413.955322 
	C442.214111,414.075409 437.385529,414.046448 432.562683,413.938751 
	C429.475403,413.869781 427.225037,414.853577 427.010040,418.196777 
	C426.800964,421.447449 426.111603,425.031158 430.870117,426.055298 
	C436.199829,427.202332 441.518982,428.448730 446.761444,429.937927 
	C452.815460,431.657654 455.616150,435.275909 455.953674,441.447388 
	C456.284149,447.490326 456.580719,453.576538 450.628601,457.983887 
	C450.414581,458.228363 450.378510,458.404572 450.159790,458.456421 
	C449.215790,458.831360 448.490479,459.154480 447.765137,459.477600 
	C438.159180,459.692749 428.534973,460.349335 418.954224,459.954071 
	C413.397736,459.724854 417.166962,454.870728 415.721252,451.249390 
	C423.964172,451.249390 431.520050,451.249390 439.923645,451.198730 
	C444.937622,450.462189 445.902832,447.557281 445.825623,443.900269 
	C445.748535,440.251099 444.098938,438.080963 440.335754,437.520416 
	C436.918304,437.011353 433.538910,436.246887 430.142731,435.595001 
	C429.029297,435.328705 427.915863,435.062408 426.177429,434.587616 
	C420.579071,433.074341 417.927551,429.348907 415.826202,425.049896 
	C415.848145,424.875885 415.870117,424.701904 415.859070,424.266968 
z"/>
<path fill="#F8F8FF" opacity="1.000000" stroke="none" 
	d="
M285.866119,413.111755 
	C285.864319,427.573700 285.709412,441.555634 285.954834,455.530548 
	C286.027954,459.693634 284.397583,460.514801 280.709778,460.550201 
	C276.863007,460.587189 275.031036,459.832031 275.106720,455.374939 
	C275.361053,440.401489 275.296051,425.420044 275.136993,410.443939 
	C275.095612,406.545837 275.508820,404.397430 280.381073,404.360931 
	C285.416626,404.323181 286.392883,406.470612 285.877899,410.633392 
	C285.796783,411.289062 285.866364,411.963348 285.866119,413.111755 
z"/>
<path fill="#9A91FC" opacity="1.000000" stroke="none" 
	d="
M430.120789,435.990417 
	C433.538910,436.246887 436.918304,437.011353 440.335754,437.520416 
	C444.098938,438.080963 445.748535,440.251099 445.825623,443.900269 
	C445.902832,447.557281 444.937622,450.462189 440.389465,451.135040 
	C438.111053,448.281464 436.220490,445.436920 434.315948,442.601807 
	C432.919769,440.523376 431.505249,438.457336 430.120789,435.990417 
z"/>
<path fill="#9A91FC" opacity="1.000000" stroke="none" 
	d="
M415.637146,425.333008 
	C417.927551,429.348907 420.579071,433.074341 425.830078,434.579651 
	C420.914764,436.626129 415.362000,431.852448 415.637146,425.333008 
z"/>
<path fill="#9A91FC" opacity="1.000000" stroke="none" 
	d="
M447.981964,459.757996 
	C448.490479,459.154480 449.215790,458.831360 450.222260,458.521088 
	C449.735199,459.035431 448.966980,459.536926 447.981964,459.757996 
z"/>
<path fill="#FAFAFF" opacity="1.000000" stroke="none" 
	d="
M449.689423,198.976898 
	C440.858704,217.639420 427.121094,230.812897 408.376190,238.641708 
	C404.735138,240.162384 400.828674,241.099228 396.983795,242.062592 
	C394.249634,242.747650 392.574402,243.782135 392.838654,247.041916 
	C393.116791,250.472809 392.900940,253.943756 392.900940,257.809601 
	C398.522064,256.966614 399.806641,260.363068 400.962616,264.253052 
	C404.925903,277.590118 405.858063,291.277618 406.063141,305.536987 
	C404.726837,321.543030 402.958344,337.042267 396.840271,351.575134 
	C394.931458,356.109406 392.343231,360.524811 389.279541,364.367676 
	C384.319855,370.588806 378.151581,370.583099 372.529449,364.950073 
	C365.669434,358.076752 362.662750,349.232178 360.409088,340.142303 
	C353.971832,314.178253 352.742706,288.182190 361.016449,262.348389 
	C361.629059,260.435608 364.139191,259.155792 365.690247,257.509247 
	C366.697296,256.440216 367.931305,255.368942 368.392548,254.061874 
	C368.863892,252.726273 368.343597,251.076385 368.557617,249.607803 
	C369.264648,244.755844 367.314148,242.800858 362.431885,241.562592 
	C356.055603,239.945389 350.036377,236.875900 343.918762,234.300171 
	C340.345795,232.795822 340.202881,230.560944 342.726227,227.719788 
	C346.244965,223.757812 349.733093,219.752106 352.965759,215.558121 
	C355.333435,212.486435 357.573090,212.381500 361.042816,213.943451 
	C385.758820,225.069794 416.674988,212.169418 426.112671,186.667419 
	C427.159149,183.181519 428.332703,180.080017 429.094482,176.880447 
	C429.714600,174.275879 430.799408,172.743301 433.705536,172.749695 
	C439.687927,172.762863 445.670502,172.589539 451.653320,172.559875 
	C455.050140,172.543030 456.048004,174.517517 455.286926,177.513702 
	C453.493927,184.571991 451.599304,191.604477 449.689423,198.976898 
M360.020416,309.399261 
	C360.350067,313.036621 360.489105,316.703308 361.043823,320.306000 
	C362.994629,332.975494 365.032623,345.722168 371.634430,356.944366 
	C373.557037,360.212585 377.502838,364.269806 380.579315,364.318817 
	C383.605988,364.367065 386.728271,359.812622 389.751251,357.211121 
	C390.217316,356.810059 390.455475,356.078217 390.664246,355.454193 
	C393.240967,347.752411 396.797394,340.209564 398.115417,332.295044 
	C400.096100,320.401398 400.562592,308.250610 401.537842,296.198212 
	C401.766388,293.374176 400.669708,291.609863 397.217346,291.660736 
	C386.078491,291.824829 374.935242,291.769501 363.794617,291.682983 
	C361.046417,291.661652 359.867767,292.643494 359.954956,295.457367 
	C360.088806,299.776337 359.999786,304.102173 360.020416,309.399261 
M352.446686,222.962982 
	C350.532928,225.367874 348.619202,227.772766 346.315338,230.667862 
	C369.689514,242.549194 392.409943,242.970398 414.732666,230.695023 
	C435.558960,219.242538 447.392761,201.235611 451.068665,177.019211 
	C446.947632,177.019211 443.454010,177.312912 440.030518,176.948471 
	C435.229126,176.437363 433.213684,178.103119 431.966248,183.009796 
	C427.248535,201.566360 415.116241,213.692352 397.165131,219.667969 
	C383.889313,224.087280 370.597992,223.019226 357.687744,217.128845 
	C356.014832,218.992218 354.469238,220.713837 352.446686,222.962982 
M362.459747,272.920563 
	C361.596008,276.378998 364.133179,275.832550 366.016998,275.844055 
	C373.494843,275.889709 380.973114,275.862396 388.451233,275.862183 
	C391.852295,275.862061 395.253357,275.862152 399.252838,275.862152 
	C398.578064,272.335754 398.040009,269.777863 397.607178,267.202301 
	C396.961639,263.360931 395.147400,261.550537 390.868835,261.909760 
	C385.753357,262.339203 380.574158,262.010742 375.422577,262.009735 
	C365.053528,262.007660 365.053528,262.007446 362.459747,272.920563 
M369.554138,287.109436 
	C379.928436,287.109436 390.302734,287.109436 400.528473,287.109436 
	C401.292877,281.323029 399.279633,279.738495 394.460632,279.917786 
	C385.144257,280.264404 375.805786,280.005066 366.476501,280.020142 
	C360.557404,280.029694 360.480103,280.142090 361.370575,287.109680 
	C363.699036,287.109680 366.137238,287.109680 369.554138,287.109436 
M388.687195,247.771545 
	C387.811462,246.485977 387.040039,244.194489 386.041718,244.090973 
	C381.966644,243.668427 377.822235,243.914871 373.478394,243.914871 
	C373.478394,248.786758 373.478394,253.125610 373.478394,257.468567 
	C378.689606,257.468567 383.419434,257.468567 388.691162,257.468567 
	C388.691162,254.278152 388.691162,251.481705 388.687195,247.771545 
z"/>
<path fill="#FDFDFF" opacity="1.000000" stroke="none" 
	d="
M683.096924,407.588257 
	C683.103699,409.070160 683.036133,410.134460 682.793823,411.920227 
	C682.348145,414.093781 682.077332,415.545898 681.806519,416.998047 
	C678.773987,429.071320 675.751404,441.147156 672.705383,453.217010 
	C670.710327,461.122253 670.695007,461.124084 662.420410,461.001862 
	C661.268494,460.984863 660.117920,460.879791 658.534729,460.791382 
	C655.254639,449.754608 651.970581,438.704468 648.686462,427.654297 
	C648.314575,427.625641 647.942627,427.596954 647.570679,427.568298 
	C645.829407,433.354919 644.080566,439.139282 642.349548,444.929016 
	C641.301086,448.435638 640.018433,451.899445 639.320068,455.475983 
	C638.615173,459.085907 636.915955,460.343567 633.208862,460.213379 
	C623.361267,459.867493 625.470642,461.179779 623.220581,452.346649 
	C619.853577,439.128754 616.783752,425.834381 613.679932,412.550903 
	C613.165283,410.348450 613.121155,408.035980 612.757446,404.890900 
	C616.304138,404.890900 619.295349,404.525543 622.114258,405.063507 
	C623.308838,405.291504 624.759460,407.292969 625.040039,408.698730 
	C627.156494,419.300781 629.001587,429.956848 630.956726,440.591431 
	C631.241089,442.138184 631.659546,443.660278 632.915955,445.216644 
	C635.561523,436.153534 638.524658,427.166290 640.716003,417.994659 
	C641.778564,413.547852 644.193176,413.152924 647.865845,413.213104 
	C651.531616,413.273193 654.393433,413.111633 655.521484,417.997101 
	C657.634338,427.147247 660.629211,436.093689 664.452637,445.121613 
	C666.411804,434.059204 668.371033,422.996796 670.382568,411.511902 
	C671.636597,409.030670 672.778503,405.297577 674.052307,405.251984 
	C676.953308,405.148193 680.986572,402.606171 683.096924,407.588257 
z"/>
<path fill="#FAF9FF" opacity="1.000000" stroke="none" 
	d="
M394.374084,122.003799 
	C378.247009,117.410156 363.725403,120.353134 350.787476,130.025360 
	C346.476501,133.248230 343.427582,133.326599 339.514313,130.088821 
	C336.231995,127.373070 332.592987,125.093117 329.191132,122.515671 
	C326.202271,120.251129 325.411987,118.169342 328.649323,114.919800 
	C344.576202,98.932846 364.151611,93.364044 386.531830,94.007889 
	C397.758820,95.553421 408.169952,98.158226 417.738831,103.631493 
	C421.160126,105.588440 422.291840,107.329285 419.677856,110.955544 
	C416.476990,115.395966 413.781097,120.208252 410.986694,124.930679 
	C409.509613,127.426918 407.942200,127.854698 405.280518,126.457275 
	C401.918579,124.692184 398.271698,123.469742 394.374084,122.003799 
M365.401459,117.814156 
	C378.555969,114.011940 391.332825,114.685333 403.795898,120.692734 
	C405.109924,121.326118 407.989899,121.126274 408.682068,120.209587 
	C411.449371,116.544708 413.639587,112.444054 416.019714,108.543327 
	C393.167419,92.296333 352.510956,95.665604 332.184601,118.600258 
	C335.828522,121.233650 339.515778,123.759857 343.039398,126.496765 
	C345.158539,128.142776 346.581238,127.537163 348.734680,126.252014 
	C353.849213,123.199753 359.302399,120.714882 365.401459,117.814156 
z"/>
<path fill="#FAFAFF" opacity="1.000000" stroke="none" 
	d="
M437.300171,119.688889 
	C447.414246,131.699631 453.448151,145.075790 455.302795,160.400253 
	C455.785004,164.384552 454.415131,165.541153 450.852173,165.499435 
	C445.368927,165.435226 439.884155,165.429443 434.400696,165.476913 
	C431.255646,165.504120 429.577393,164.254028 429.044617,160.955200 
	C427.497803,151.377655 423.395752,143.012085 416.928650,135.697128 
	C415.932922,134.570862 415.773834,131.607330 416.540100,130.216370 
	C419.419403,124.989426 422.964233,120.134377 426.017090,114.995865 
	C427.979950,111.692093 429.923431,111.938835 432.264069,114.370583 
	C433.875458,116.044724 435.473083,117.732079 437.300171,119.688889 
M446.842255,143.822647 
	C442.894073,134.068558 437.634979,125.224533 429.314972,117.842995 
	C426.542084,122.271355 423.836487,126.074966 421.765656,130.197449 
	C421.097046,131.528458 421.690369,133.881805 422.402405,135.451904 
	C425.803223,142.951157 429.406525,150.359955 433.036041,157.752701 
	C433.613739,158.929367 434.641602,160.710861 435.546448,160.763977 
	C440.562805,161.058517 445.605469,160.905136 451.483551,160.905136 
	C449.824738,154.769699 448.446198,149.670868 446.842255,143.822647 
z"/>
<path fill="#FCFCFF" opacity="1.000000" stroke="none" 
	d="
M494.312531,170.918976 
	C486.769897,170.972565 479.656342,171.086349 472.551392,170.890289 
	C471.225739,170.853714 469.934448,169.573685 468.627289,168.867508 
	C469.880859,168.066986 471.113922,166.614624 472.391418,166.574463 
	C479.328888,166.356339 486.280090,166.390701 493.219421,166.588104 
	C494.434082,166.622665 495.614868,167.846680 496.811279,168.521332 
	C496.122406,169.304932 495.433502,170.088531 494.312531,170.918976 
z"/>
<path fill="#FAF9FF" opacity="1.000000" stroke="none" 
	d="
M452.128418,116.175575 
	C450.370789,116.906143 448.864258,117.385635 447.357697,117.865128 
	C447.743744,116.407021 447.682556,114.529518 448.590759,113.561043 
	C453.356659,108.478828 458.287292,103.540764 463.369873,98.775703 
	C464.259949,97.941223 466.146088,98.169167 467.572205,97.906471 
	C467.201691,99.217377 467.224365,100.899696 466.395264,101.777481 
	C461.838440,106.601868 457.073151,111.229385 452.128418,116.175575 
z"/>
<path fill="#FAFAFF" opacity="1.000000" stroke="none" 
	d="
M468.409027,239.476578 
	C466.885406,239.678925 464.793091,240.178665 463.918915,239.366776 
	C458.591797,234.419281 453.500610,229.213577 448.422180,224.004822 
	C446.739288,222.278763 445.636627,220.341354 449.537903,219.373230 
	C455.014099,224.561661 460.182709,229.673752 465.249298,234.885025 
	C466.473694,236.144348 467.360992,237.731430 468.409027,239.476578 
z"/>
<path fill="#F8F8FF" opacity="1.000000" stroke="none" 
	d="
M466.551392,200.400909 
	C465.233459,198.979095 464.263611,197.709610 463.293762,196.440125 
	C464.892670,196.383026 466.611511,195.922623 468.064972,196.354721 
	C470.889465,197.194382 473.654968,198.368134 476.248779,199.767166 
	C477.053894,200.201416 477.225616,201.809967 477.687317,202.880905 
	C476.675873,203.179703 475.514923,203.952744 474.680603,203.689728 
	C472.021576,202.851440 469.484009,201.627945 466.551392,200.400909 
z"/>
<path fill="#FAFAFF" opacity="1.000000" stroke="none" 
	d="
M463.775513,138.829926 
	C467.394318,137.114792 470.674408,135.469147 474.111420,134.275177 
	C475.136505,133.919083 476.601166,134.828323 477.864410,135.157791 
	C477.236542,136.179214 476.848511,137.668549 475.936676,138.135895 
	C472.990540,139.645844 469.904663,140.934006 466.770386,142.009781 
	C464.310608,142.854065 462.182709,142.724060 463.775513,138.829926 
z"/>
<path fill="#FDFDFF" opacity="1.000000" stroke="none" 
	d="
M562.537598,446.436646 
	C562.559692,436.366211 562.588501,426.728485 562.726990,417.092407 
	C562.857544,408.009705 566.654541,404.198181 575.771851,404.020508 
	C581.420776,403.910431 587.076416,403.888092 592.724243,404.025238 
	C601.337524,404.234375 605.918579,408.891266 605.989014,417.479858 
	C606.066650,426.953247 606.018311,436.427795 606.004272,445.901794 
	C605.988281,456.677643 601.730225,460.921997 590.894226,461.005127 
	C589.564758,461.015320 588.235413,461.039093 586.451904,461.113800 
	C583.181641,461.116943 580.365662,461.034363 577.549194,461.013763 
	C567.101624,460.937347 563.269653,457.322723 562.537598,446.436646 
M595.855652,422.738434 
	C595.796143,415.340546 594.710205,413.251526 590.215515,412.966980 
	C586.247559,412.715759 582.244446,412.780273 578.268799,412.963867 
	C575.057251,413.112213 572.945312,414.759918 572.937378,418.268097 
	C572.915894,427.730988 572.904053,437.194031 572.936707,446.656860 
	C572.949341,450.328400 574.924805,452.106934 578.558044,452.111237 
	C582.044373,452.115387 585.531921,452.176208 589.016846,452.107452 
	C594.097107,452.007263 595.773804,450.332703 595.834229,445.102234 
	C595.916626,437.964386 595.855225,430.824860 595.855652,422.738434 
z"/>
<path fill="#FAF9FF" opacity="1.000000" stroke="none" 
	d="
M305.949646,165.093048 
	C306.458130,152.012039 310.620270,140.553375 316.660553,129.638275 
	C318.906494,125.579742 321.420959,125.119041 324.998352,128.062286 
	C328.716736,131.121567 332.476562,134.214188 336.577240,136.700089 
	C340.202789,138.897964 340.354156,140.974731 338.304901,144.353653 
	C330.133545,157.827072 329.458130,172.222046 335.180908,186.492828 
	C337.761688,192.928391 342.573975,198.545517 346.817322,204.201202 
	C348.571045,206.538651 349.569763,207.948517 347.297333,210.484940 
	C343.527191,214.693039 340.038879,219.157501 336.508759,223.575424 
	C334.230865,226.426193 332.205994,226.447067 329.521271,223.872940 
	C312.913177,207.949005 305.101868,188.526627 305.949646,165.093048 
M326.515625,154.164062 
	C332.109802,153.172745 330.681854,147.816162 333.187531,144.576614 
	C332.076324,144.294144 331.566528,143.990417 331.145966,144.084747 
	C327.253357,144.958099 323.372772,145.886200 319.495178,146.825150 
	C312.228821,148.584702 311.657257,149.362518 311.709381,157.743774 
	C316.446930,156.604019 321.091095,155.486755 326.515625,154.164062 
M319.301819,201.692703 
	C320.976471,204.180649 322.742493,208.832397 324.309265,208.766235 
	C329.853485,208.532120 335.329559,206.684784 341.124695,205.383041 
	C335.977478,197.386719 335.974426,197.373489 328.093323,199.198212 
	C325.360809,199.830856 322.647675,200.547043 319.301819,201.692703 
M318.279541,169.890198 
	C328.769409,167.268814 328.782196,167.254074 327.361725,159.324158 
	C326.922302,159.231674 326.421997,158.974152 325.989471,159.059616 
	C322.750427,159.699600 319.513794,160.359924 316.297180,161.103729 
	C309.592621,162.654053 309.100861,163.527405 310.803192,171.181763 
	C312.998596,170.796722 315.219757,170.407166 318.279541,169.890198 
M328.450684,179.378189 
	C328.106598,177.115250 327.762543,174.852310 327.437500,172.714554 
	C326.810364,172.547302 326.468506,172.337570 326.185303,172.398834 
	C323.110687,173.064072 320.037109,173.737854 316.979004,174.474869 
	C309.963257,176.165741 309.356720,177.518829 312.839386,185.122055 
	C317.954437,183.488083 323.192261,181.814896 328.450684,179.378189 
M326.527374,186.019379 
	C322.213440,186.995438 317.899475,187.971497 311.915527,189.325394 
	C314.505554,192.531876 316.353485,196.729858 318.191193,196.725372 
	C323.088501,196.713455 327.981445,194.893036 332.876099,193.791595 
	C333.140594,193.205399 333.405121,192.619217 333.669647,192.033020 
	C331.564697,189.999985 329.459747,187.966949 326.527374,186.019379 
M322.209198,131.569763 
	C319.755920,135.005920 317.302673,138.442093 314.849396,141.878265 
	C315.218079,142.299179 315.586792,142.720108 315.955475,143.141037 
	C321.159454,141.948776 326.363434,140.756531 332.954315,139.246521 
	C328.854004,136.269455 325.837585,134.079330 322.209198,131.569763 
M327.274048,213.575974 
	C328.871399,218.729965 332.224548,221.241455 334.601562,218.934143 
	C337.156525,216.454102 339.331268,213.582336 341.957489,210.551971 
	C340.796600,210.322220 340.310181,210.073090 339.906555,210.169739 
	C335.898285,211.129608 331.903717,212.146637 327.274048,213.575974 
z"/>
<path fill="#FDFDFF" opacity="1.000000" stroke="none" 
	d="
M511.938995,407.466736 
	C513.157776,406.291901 514.423096,404.997314 515.716675,404.968414 
	C523.846069,404.786987 531.985413,404.737244 540.114197,404.937836 
	C547.708984,405.125244 552.458862,409.864624 552.877625,417.380096 
	C553.052856,420.524353 552.948120,423.686249 552.914673,426.839539 
	C552.865784,431.452606 551.173096,435.138550 547.195801,437.815826 
	C546.276062,438.434875 546.136475,440.212921 545.872192,441.727600 
	C548.595947,446.116394 551.230103,450.156189 553.533936,454.376312 
	C555.805847,458.537903 554.778137,459.735321 550.130554,460.221222 
	C545.281311,460.728241 542.282654,459.210083 540.772888,454.444672 
	C539.980225,451.942596 538.622070,449.601410 537.374207,447.265076 
	C532.862854,438.818695 532.839600,438.831116 522.247681,440.504181 
	C522.247681,444.279297 522.248352,448.203583 522.247559,452.127869 
	C522.245850,461.002319 522.010315,461.189026 511.998566,459.452240 
	C511.998566,442.382721 511.998566,425.157440 511.938995,407.466736 
M522.221619,423.459900 
	C522.270508,432.035980 521.571899,430.913239 529.669373,431.007568 
	C530.835205,431.021179 532.001343,431.011322 533.167297,431.008545 
	C541.371887,430.988800 542.892395,429.473572 542.760315,421.450958 
	C542.647949,414.626648 540.843506,413.262787 531.680481,413.305878 
	C520.947083,413.356354 522.339600,412.221710 522.221619,423.459900 
z"/>
<path fill="#FCFCFF" opacity="1.000000" stroke="none" 
	d="
M497.534302,404.692719 
	C499.650208,405.155792 501.303345,405.697449 503.065369,406.620422 
	C502.612671,413.074951 501.969635,413.673218 495.800964,413.703705 
	C490.972137,413.727570 486.143097,413.708588 481.314148,413.716766 
	C477.063599,413.723969 474.847046,415.664337 474.890686,420.111725 
	C474.972412,428.436707 474.972290,436.763733 474.883209,445.088593 
	C474.835266,449.569733 477.006927,451.404114 481.332611,451.319000 
	C486.159729,451.224030 490.990112,451.296936 495.819092,451.297668 
	C503.956909,451.298889 503.956909,451.299255 502.703064,459.924622 
	C493.313293,459.924622 483.856567,460.214417 474.429932,459.807068 
	C469.428497,459.590881 465.103271,455.475647 464.922760,450.392853 
	C464.492523,438.278168 464.386322,426.116943 464.981415,414.015442 
	C465.286530,407.810669 469.147583,405.235687 476.095581,404.982483 
	C483.080872,404.727875 490.079010,404.827087 497.534302,404.692719 
z"/>
<path fill="#F8F8FF" opacity="1.000000" stroke="none" 
	d="
M306.428772,224.417496 
	C308.113007,222.781662 309.449280,221.267014 311.030243,220.077652 
	C311.629486,219.626831 313.386139,219.597458 313.580231,219.948410 
	C314.041595,220.782547 314.376984,222.430237 313.903137,222.924362 
	C308.269012,228.799667 302.517578,234.565720 296.658020,240.216385 
	C296.125763,240.729675 294.632416,240.246368 293.585358,240.225861 
	C293.796722,239.047531 293.601257,237.490982 294.286865,236.753494 
	C298.133240,232.615891 302.192017,228.675751 306.428772,224.417496 
z"/>
<path fill="#FCFCFF" opacity="1.000000" stroke="none" 
	d="
M276.041687,170.962357 
	C272.884827,170.966904 270.198883,171.159698 267.561554,170.885437 
	C266.478790,170.772858 265.500732,169.653244 264.475098,168.991730 
	C265.361298,168.197952 266.231964,166.736404 267.136139,166.715347 
	C274.793549,166.537231 282.458344,166.559204 290.117096,166.712448 
	C291.003265,166.730164 291.866089,167.915176 292.739716,168.558990 
	C291.836395,169.353119 290.968140,170.781143 290.023712,170.833450 
	C285.537903,171.081863 281.031342,170.955460 276.041687,170.962357 
z"/>
<path fill="#F8F8FF" opacity="1.000000" stroke="none" 
	d="
M295.451660,102.450745 
	C294.770630,100.674141 294.342407,99.149971 293.914185,97.625801 
	C295.347107,98.050156 297.174469,98.055145 298.146637,98.969437 
	C303.097961,103.626083 307.851044,108.495338 312.624573,113.338417 
	C314.584991,115.327408 315.010895,117.253975 311.996887,118.829559 
	C306.493011,113.381767 301.098755,108.042473 295.451660,102.450745 
z"/>
<path fill="#F8F8FF" opacity="1.000000" stroke="none" 
	d="
M284.438965,137.584534 
	C282.150909,134.634384 282.931641,133.077225 286.178497,133.967178 
	C289.843628,134.971786 293.363770,136.610550 296.795624,138.283951 
	C297.615326,138.683640 297.834473,140.314896 298.329834,141.379730 
	C297.161041,141.635422 295.813019,142.395950 294.855652,142.056091 
	C291.413483,140.834015 288.103241,139.240402 284.438965,137.584534 
z"/>
<path fill="#F8F8FF" opacity="1.000000" stroke="none" 
	d="
M285.108154,203.964462 
	C282.123138,202.709915 282.704651,201.055603 284.658264,200.067078 
	C288.033600,198.359192 291.589172,196.976730 295.156616,195.702866 
	C295.951508,195.419037 297.109131,196.151077 298.099731,196.415405 
	C297.567108,197.467102 297.298126,199.073990 296.455963,199.473953 
	C292.893951,201.165543 289.161377,202.498062 285.108154,203.964462 
z"/>
<path fill="#FCFCFF" opacity="1.000000" stroke="none" 
	d="
M163.695007,459.473541 
	C161.876755,460.023010 160.238007,460.163513 158.613037,460.399017 
	C155.019119,460.919952 153.306747,459.457581 152.380188,455.842621 
	C150.251846,447.538818 151.262619,448.479126 142.363358,448.390808 
	C141.531998,448.382538 140.700470,448.389618 139.869019,448.389618 
	C130.794785,448.389496 130.709641,448.363220 128.087173,456.847778 
	C126.003296,463.589752 120.926712,458.947601 116.372276,460.909271 
	C116.870018,457.576782 116.900078,455.291321 117.571655,453.213196 
	C122.371101,438.362152 127.376053,423.577240 132.126038,408.710693 
	C133.064072,405.774780 134.595352,404.937744 137.526276,404.922119 
	C147.080551,404.871246 147.056854,404.772156 150.030273,413.731445 
	C154.196243,426.284119 158.462112,438.804108 162.536163,451.386322 
	C163.332993,453.847260 163.450134,456.528229 163.695007,459.473541 
M144.003265,439.884369 
	C145.098145,439.739197 146.193024,439.594025 147.834076,439.376404 
	C145.477325,431.509674 143.233566,424.020081 140.989807,416.530518 
	C140.613434,416.548065 140.237061,416.565613 139.860687,416.583160 
	C137.611771,424.130341 135.362854,431.677521 132.917007,439.885559 
	C136.862061,439.885559 139.999359,439.885559 144.003265,439.884369 
z"/>
<path fill="#FAF9FF" opacity="1.000000" stroke="none" 
	d="
M76.996994,455.181885 
	C78.274948,453.860016 79.479996,452.375641 80.825005,452.235596 
	C84.284454,451.875366 87.806778,452.158234 91.302467,452.097534 
	C96.740555,452.003143 98.119553,450.695892 98.153046,445.255829 
	C98.222763,433.933563 98.177208,422.610596 98.178932,411.287903 
	C98.179214,409.480682 98.178978,407.673462 98.178978,405.426788 
	C101.799232,405.426788 104.973625,405.426788 108.807434,405.426788 
	C108.807434,409.902130 108.808090,414.185974 108.807297,418.469818 
	C108.805542,427.960876 108.875404,437.452698 108.780182,446.942810 
	C108.688103,456.119781 104.025986,460.838684 94.973000,460.993591 
	C89.190269,461.092529 83.404480,461.012085 77.286926,461.012085 
	C77.167244,458.859253 77.077538,457.245483 76.996994,455.181885 
z"/>
<path fill="#9E96FC" opacity="1.000000" stroke="none" 
	d="
M682.167480,416.935242 
	C682.077332,415.545898 682.348145,414.093781 682.802490,412.320404 
	C686.378113,413.956360 685.227234,415.487061 682.167480,416.935242 
z"/>
<path fill="#978EFC" opacity="1.000000" stroke="none" 
	d="
M324.413544,413.845825 
	C328.784027,416.266937 330.303314,420.962006 328.774353,426.431702 
	C327.655975,430.432617 324.492004,431.054993 320.925598,431.001007 
	C317.147980,430.943848 313.368805,430.988190 308.938202,430.988190 
	C308.938202,425.829559 308.717865,421.215942 309.101288,416.653046 
	C309.191254,415.582306 311.254303,413.960846 312.527405,413.840698 
	C316.311951,413.483398 320.155182,413.747742 324.413544,413.845825 
z"/>
<path fill="#9A91FC" opacity="1.000000" stroke="none" 
	d="
M192.003220,439.880432 
	C189.576721,439.880310 187.610092,439.880310 184.496262,439.880310 
	C186.928986,431.663177 189.139481,424.196625 191.349976,416.730103 
	C191.757675,416.681915 192.165359,416.633728 192.573059,416.585541 
	C194.792297,424.002350 197.011536,431.419159 199.543335,439.880554 
	C196.594528,439.880554 194.528809,439.880554 192.003220,439.880432 
z"/>
<path fill="#9C93FC" opacity="1.000000" stroke="none" 
	d="
M360.012878,308.912170 
	C359.999786,304.102173 360.088806,299.776337 359.954956,295.457367 
	C359.867767,292.643494 361.046417,291.661652 363.794617,291.682983 
	C374.935242,291.769501 386.078491,291.824829 397.217346,291.660736 
	C400.669708,291.609863 401.766388,293.374176 401.537842,296.198212 
	C400.562592,308.250610 400.096100,320.401398 398.115417,332.295044 
	C396.797394,340.209564 393.240967,347.752411 390.664246,355.454193 
	C390.455475,356.078217 390.217316,356.810059 389.751251,357.211121 
	C386.728271,359.812622 383.605988,364.367065 380.579315,364.318817 
	C377.502838,364.269806 373.557037,360.212585 371.634430,356.944366 
	C365.032623,345.722168 362.994629,332.975494 361.043823,320.306000 
	C360.489105,316.703308 360.350067,313.036621 360.012878,308.912170 
M387.550446,346.090179 
	C391.227661,342.606049 392.073975,338.511932 390.033600,333.897034 
	C388.145996,329.627655 384.781036,327.747711 380.126038,327.900696 
	C375.359375,328.057343 372.417267,330.660461 370.804016,334.841187 
	C369.124939,339.192596 370.443573,343.021790 373.718231,346.109619 
	C377.286316,349.474060 381.473694,349.534332 387.550446,346.090179 
z"/>
<path fill="#9D95FC" opacity="1.000000" stroke="none" 
	d="
M352.685150,222.699219 
	C354.469238,220.713837 356.014832,218.992218 357.687744,217.128845 
	C370.597992,223.019226 383.889313,224.087280 397.165131,219.667969 
	C415.116241,213.692352 427.248535,201.566360 431.966248,183.009796 
	C433.213684,178.103119 435.229126,176.437363 440.030518,176.948471 
	C443.454010,177.312912 446.947632,177.019211 451.068665,177.019211 
	C447.392761,201.235611 435.558960,219.242538 414.732666,230.695023 
	C392.409943,242.970398 369.689514,242.549194 346.315338,230.667862 
	C348.619202,227.772766 350.532928,225.367874 352.685150,222.699219 
z"/>
<path fill="#9D95FC" opacity="1.000000" stroke="none" 
	d="
M362.567200,272.528198 
	C365.053528,262.007446 365.053528,262.007660 375.422577,262.009735 
	C380.574158,262.010742 385.753357,262.339203 390.868835,261.909760 
	C395.147400,261.550537 396.961639,263.360931 397.607178,267.202301 
	C398.040009,269.777863 398.578064,272.335754 399.252838,275.862152 
	C395.253357,275.862152 391.852295,275.862061 388.451233,275.862183 
	C380.973114,275.862396 373.494843,275.889709 366.016998,275.844055 
	C364.133179,275.832550 361.596008,276.378998 362.567200,272.528198 
z"/>
<path fill="#9B93FC" opacity="1.000000" stroke="none" 
	d="
M369.064789,287.109558 
	C366.137238,287.109680 363.699036,287.109680 361.370575,287.109680 
	C360.480103,280.142090 360.557404,280.029694 366.476501,280.020142 
	C375.805786,280.005066 385.144257,280.264404 394.460632,279.917786 
	C399.279633,279.738495 401.292877,281.323029 400.528473,287.109436 
	C390.302734,287.109436 379.928436,287.109436 369.064789,287.109558 
z"/>
<path fill="#9E96FC" opacity="1.000000" stroke="none" 
	d="
M388.689178,248.228394 
	C388.691162,251.481705 388.691162,254.278152 388.691162,257.468567 
	C383.419434,257.468567 378.689606,257.468567 373.478394,257.468567 
	C373.478394,253.125610 373.478394,248.786758 373.478394,243.914871 
	C377.822235,243.914871 381.966644,243.668427 386.041718,244.090973 
	C387.040039,244.194489 387.811462,246.485977 388.689178,248.228394 
z"/>
<path fill="#9E96FC" opacity="1.000000" stroke="none" 
	d="
M365.010071,117.907440 
	C359.302399,120.714882 353.849213,123.199753 348.734680,126.252014 
	C346.581238,127.537163 345.158539,128.142776 343.039398,126.496765 
	C339.515778,123.759857 335.828522,121.233650 332.184601,118.600258 
	C352.510956,95.665604 393.167419,92.296333 416.019714,108.543327 
	C413.639587,112.444054 411.449371,116.544708 408.682068,120.209587 
	C407.989899,121.126274 405.109924,121.326118 403.795898,120.692734 
	C391.332825,114.685333 378.555969,114.011940 365.010071,117.907440 
z"/>
<path fill="#9E96FC" opacity="1.000000" stroke="none" 
	d="
M446.954956,144.197342 
	C448.446198,149.670868 449.824738,154.769699 451.483551,160.905136 
	C445.605469,160.905136 440.562805,161.058517 435.546448,160.763977 
	C434.641602,160.710861 433.613739,158.929367 433.036041,157.752701 
	C429.406525,150.359955 425.803223,142.951157 422.402405,135.451904 
	C421.690369,133.881805 421.097046,131.528458 421.765656,130.197449 
	C423.836487,126.074966 426.542084,122.271355 429.314972,117.842995 
	C437.634979,125.224533 442.894073,134.068558 446.954956,144.197342 
z"/>
<path fill="#9C93FC" opacity="1.000000" stroke="none" 
	d="
M595.855591,423.212250 
	C595.855225,430.824860 595.916626,437.964386 595.834229,445.102234 
	C595.773804,450.332703 594.097107,452.007263 589.016846,452.107452 
	C585.531921,452.176208 582.044373,452.115387 578.558044,452.111237 
	C574.924805,452.106934 572.949341,450.328400 572.936707,446.656860 
	C572.904053,437.194031 572.915894,427.730988 572.937378,418.268097 
	C572.945312,414.759918 575.057251,413.112213 578.268799,412.963867 
	C582.244446,412.780273 586.247559,412.715759 590.215515,412.966980 
	C594.710205,413.251526 595.796143,415.340546 595.855591,423.212250 
z"/>
<path fill="#9E96FC" opacity="1.000000" stroke="none" 
	d="
M326.125427,154.266769 
	C321.091095,155.486755 316.446930,156.604019 311.709381,157.743774 
	C311.657257,149.362518 312.228821,148.584702 319.495178,146.825150 
	C323.372772,145.886200 327.253357,144.958099 331.145966,144.084747 
	C331.566528,143.990417 332.076324,144.294144 333.187531,144.576614 
	C330.681854,147.816162 332.109802,153.172745 326.125427,154.266769 
z"/>
<path fill="#9E96FC" opacity="1.000000" stroke="none" 
	d="
M319.613770,201.458893 
	C322.647675,200.547043 325.360809,199.830856 328.093323,199.198212 
	C335.974426,197.373489 335.977478,197.386719 341.124695,205.383041 
	C335.329559,206.684784 329.853485,208.532120 324.309265,208.766235 
	C322.742493,208.832397 320.976471,204.180649 319.613770,201.458893 
z"/>
<path fill="#9E96FC" opacity="1.000000" stroke="none" 
	d="
M317.860229,169.953918 
	C315.219757,170.407166 312.998596,170.796722 310.803192,171.181763 
	C309.100861,163.527405 309.592621,162.654053 316.297180,161.103729 
	C319.513794,160.359924 322.750427,159.699600 325.989471,159.059616 
	C326.421997,158.974152 326.922302,159.231674 327.361725,159.324158 
	C328.782196,167.254074 328.769409,167.268814 317.860229,169.953918 
z"/>
<path fill="#9E96FC" opacity="1.000000" stroke="none" 
	d="
M328.440369,179.759949 
	C323.192261,181.814896 317.954437,183.488083 312.839386,185.122055 
	C309.356720,177.518829 309.963257,176.165741 316.979004,174.474869 
	C320.037109,173.737854 323.110687,173.064072 326.185303,172.398834 
	C326.468506,172.337570 326.810364,172.547302 327.437500,172.714554 
	C327.762543,174.852310 328.106598,177.115250 328.440369,179.759949 
z"/>
<path fill="#9E96FC" opacity="1.000000" stroke="none" 
	d="
M326.941101,185.976639 
	C329.459747,187.966949 331.564697,189.999985 333.669647,192.033020 
	C333.405121,192.619217 333.140594,193.205399 332.876099,193.791595 
	C327.981445,194.893036 323.088501,196.713455 318.191193,196.725372 
	C316.353485,196.729858 314.505554,192.531876 311.915527,189.325394 
	C317.899475,187.971497 322.213440,186.995438 326.941101,185.976639 
z"/>
<path fill="#9E96FC" opacity="1.000000" stroke="none" 
	d="
M322.515167,131.729492 
	C325.837585,134.079330 328.854004,136.269455 332.954315,139.246521 
	C326.363434,140.756531 321.159454,141.948776 315.955475,143.141037 
	C315.586792,142.720108 315.218079,142.299179 314.849396,141.878265 
	C317.302673,138.442093 319.755920,135.005920 322.515167,131.729492 
z"/>
<path fill="#A39BFD" opacity="1.000000" stroke="none" 
	d="
M327.589661,213.361755 
	C331.903717,212.146637 335.898285,211.129608 339.906555,210.169739 
	C340.310181,210.073090 340.796600,210.322220 341.957489,210.551971 
	C339.331268,213.582336 337.156525,216.454102 334.601562,218.934143 
	C332.224548,221.241455 328.871399,218.729965 327.589661,213.361755 
z"/>
<path fill="#9E96FC" opacity="1.000000" stroke="none" 
	d="
M522.222290,422.987457 
	C522.339600,412.221710 520.947083,413.356354 531.680481,413.305878 
	C540.843506,413.262787 542.647949,414.626648 542.760315,421.450958 
	C542.892395,429.473572 541.371887,430.988800 533.167297,431.008545 
	C532.001343,431.011322 530.835205,431.021179 529.669373,431.007568 
	C521.571899,430.913239 522.270508,432.035980 522.222290,422.987457 
z"/>
<path fill="#9A91FC" opacity="1.000000" stroke="none" 
	d="
M143.569962,439.884949 
	C139.999359,439.885559 136.862061,439.885559 132.917007,439.885559 
	C135.362854,431.677521 137.611771,424.130341 139.860687,416.583160 
	C140.237061,416.565613 140.613434,416.548065 140.989807,416.530518 
	C143.233566,424.020081 145.477325,431.509674 147.834076,439.376404 
	C146.193024,439.594025 145.098145,439.739197 143.569962,439.884949 
z"/>
<path fill="#FAF9FF" opacity="1.000000" stroke="none" 
	d="
M387.261475,346.341858 
	C381.473694,349.534332 377.286316,349.474060 373.718231,346.109619 
	C370.443573,343.021790 369.124939,339.192596 370.804016,334.841187 
	C372.417267,330.660461 375.359375,328.057343 380.126038,327.900696 
	C384.781036,327.747711 388.145996,329.627655 390.033600,333.897034 
	C392.073975,338.511932 391.227661,342.606049 387.261475,346.341858 
M379.852234,332.179382 
	C376.410889,333.091980 373.751404,335.198303 374.719940,338.830383 
	C375.274200,340.908875 377.622711,343.339142 379.680695,343.999756 
	C383.116455,345.102722 386.031219,343.054352 386.668365,339.425842 
	C387.448883,334.980988 384.993866,332.586395 379.852234,332.179382 
z"/>
<path fill="#9D95FC" opacity="1.000000" stroke="none" 
	d="
M380.228699,332.137878 
	C384.993866,332.586395 387.448883,334.980988 386.668365,339.425842 
	C386.031219,343.054352 383.116455,345.102722 379.680695,343.999756 
	C377.622711,343.339142 375.274200,340.908875 374.719940,338.830383 
	C373.751404,335.198303 376.410889,333.091980 380.228699,332.137878 
z"/>
</svg>